# xmcd
#
# Track frame offsets: 
#        150
#        20896
#        38077
#        68865
#        106903
#        126234
#        146678
#        179799
#        212458
#        229644
#        278474
#        306933
#
# Disc length: 4562 seconds
#
# Revision: 2
# Processed by: cddbd v1.5.2PL0 Copyright (c) Steve Scherf et al.
# Submitted via: ExactAudioCopyFreeDBPlugin 1.0
#
DISCID=ad11d00c
DTITLE=Iron Maiden - From Fear To Eternity [CD1 Of 2)
DYEAR=2011
DGENRE=Heavy Metal
TTITLE0=The Wicker Man
TTITLE1=Holy Smoke
TTITLE2=El Dorado
TTITLE3=Paschendale
TTITLE4=Different World
TTITLE5=Man On The Edge (Live)
TTITLE6=The Reicarnation Of Benjamin Breeg
TTITLE7=Blood Brothers
TTITLE8=Rainmaker
TTITLE9=Sign Of The Cross (Live)
TTITLE10=Brave New World
TTITLE11=Fear Of The Dark (Live)
EXTD=
EXTT0=
EXTT1=
EXTT2=
EXTT3=
EXTT4=
EXTT5=
EXTT6=
EXTT7=
EXTT8=
EXTT9=
EXTT10=
EXTT11=
PLAYORDER=
